<?xml version="1.0" encoding="UTF-8"?>
<svg width="20px" height="20px" viewBox="0 0 20 20" version="1.1" xmlns="http://www.w3.org/2000/svg" xmlns:xlink="http://www.w3.org/1999/xlink">
    <!-- Generator: Sketch 63 (92445) - https://sketch.com -->
    <title>销售数据-未选备份</title>
    <desc>Created with Sketch.</desc>
    <defs>
        <polygon id="path-1" points="0 0 19.9904712 0 19.9904712 19.9904503 0 19.9904503"></polygon>
    </defs>
    <g id="页面-1" stroke="none" stroke-width="1" fill="none" fill-rule="evenodd">
        <g id="画板" transform="translate(-302.000000, -16.000000)">
            <g id="导航栏备份" transform="translate(9.000000, 8.000000)">
                <g id="销售数据-未选备份" transform="translate(293.000000, 8.000000)">
                    <mask id="mask-2" fill="white">
                        <use xlink:href="#path-1"></use>
                    </mask>
                    <g id="Clip-2"></g>
                    <path d="M7.85340314,3.87673298 C4.17026178,4.33495288 1.41078534,7.47369634 1.42777466,11.1851099 C1.42777466,15.2531728 4.73727749,18.5625969 8.80534031,18.5625969 C12.5701571,18.5625969 15.6505759,15.7943246 16.1137173,12.1370471 L7.85340314,12.1370471 L7.85340314,3.87673298 Z M8.80534031,19.9904503 C3.95005236,19.9904503 0,16.0403979 0,11.1851099 C0,6.39411518 3.75434555,2.53212565 8.54638743,2.39264921 L9.28125654,2.37024084 L9.28125654,10.7091937 L17.6196859,10.7091937 L17.5983246,11.4444817 C17.4588482,16.2365236 13.5963351,19.9904503 8.80534031,19.9904503 L8.80534031,19.9904503 Z M19.9581152,9.75725654 L10.2331937,9.75725654 L10.2331937,0.0323350785 L11,0.00804188482 C11.0613613,0.00385340314 11.1228272,-2.09424084e-05 11.1851309,-2.09424084e-05 C16.0404188,-2.09424084e-05 19.9904712,3.95003141 19.9904712,8.80531937 C19.9904712,8.86772775 19.9867016,8.92908901 19.9824084,8.99045026 L19.9581152,9.75725654 Z M11.6611518,8.32929843 L18.5473298,8.32929843 C18.3113089,4.63966492 15.3507853,1.67924607 11.6611518,1.44312042 L11.6611518,8.32929843 Z" id="Fill-1" fill="#FFFFFF" mask="url(#mask-2)"></path>
                </g>
            </g>
        </g>
    </g>
</svg>