<?xml version="1.0" encoding="UTF-8"?>
<svg width="12px" height="12px" viewBox="0 0 12 12" version="1.1" xmlns="http://www.w3.org/2000/svg" xmlns:xlink="http://www.w3.org/1999/xlink">
    <!-- Generator: Sketch 63 (92445) - https://sketch.com -->
    <title>农场名称</title>
    <desc>Created with Sketch.</desc>
    <defs>
        <polygon id="path-1" points="0 0.0204907338 11.9927613 0.0204907338 11.9927613 11.8064194 0 11.8064194"></polygon>
    </defs>
    <g id="页面-1" stroke="none" stroke-width="1" fill="none" fill-rule="evenodd">
        <g id="农业资产" transform="translate(-30.000000, -741.000000)">
            <g id="编组-5" transform="translate(30.000000, 710.000000)">
                <g id="农场名称" transform="translate(0.000000, 31.000000)">
                    <g id="编组" transform="translate(0.000000, 0.044065)">
                        <mask id="mask-2" fill="white">
                            <use xlink:href="#path-1"></use>
                        </mask>
                        <g id="Clip-2"></g>
                        <path d="M1.49540645,2.35835484 L6.73727742,0.785580645 L6.73727742,11.0507419 L1.49540645,11.0507419 L1.49540645,2.35835484 Z M10.4905032,6.8513871 L10.4905032,11.0507419 L7.49747097,11.0507419 L7.49747097,4.91209677 L10.4905032,6.8513871 Z M11.6149548,11.0507419 L11.2439226,11.0507419 L11.2439226,6.89235484 C11.2439226,6.66925806 11.1324387,6.36880645 10.8661161,6.25732258 L7.49747097,4.05403226 L7.49747097,0.603451613 L7.46101935,0.526096774 C7.30856774,0.150548387 6.97392258,-0.0383548387 6.5619871,0.0367419355 L1.27914839,1.60951613 C0.978696774,1.72106452 0.755664516,2.02145161 0.755664516,2.35835484 L0.755664516,11.0507419 L0.377858065,11.0507419 C0.147922581,11.0507419 -1.29032258e-05,11.2397097 -1.29032258e-05,11.4286129 C-1.29032258e-05,11.6584839 0.152503226,11.8064194 0.377858065,11.8064194 L11.6149548,11.8064194 C11.8448903,11.8064194 11.9927613,11.6539677 11.9927613,11.4286129 C11.9905032,11.1986774 11.8379871,11.0507419 11.6149548,11.0507419 L11.6149548,11.0507419 Z" id="Fill-1" fill="#F0F0F0" mask="url(#mask-2)"></path>
                    </g>
                    <path d="M8.23951613,8.43864516 C8.23951613,8.66851613 8.39196774,8.81645161 8.61732258,8.81645161 L9.36616129,8.81645161 C9.59603226,8.81645161 9.74396774,8.66851613 9.74396774,8.43864516 L9.74396774,8.4363871 L9.74396774,8.43412903 C9.74396774,8.20419355 9.59151613,8.05625806 9.36616129,8.05625806 L8.61732258,8.05625806 C8.38745161,8.05625806 8.23951613,8.20419355 8.23951613,8.43412903 L8.23951613,8.43864516 Z M5.24183871,8.05625806 L2.99758065,8.05625806 C2.76770968,8.05625806 2.61977419,8.20419355 2.61977419,8.43412903 L2.61977419,8.43864516 C2.61977419,8.66851613 2.77229032,8.81645161 2.99758065,8.81645161 L5.24183871,8.81645161 C5.47177419,8.81645161 5.61970968,8.66851613 5.61970968,8.43864516 L5.61970968,8.4363871 L5.61970968,8.43412903 C5.61970968,8.20419355 5.46493548,8.05625806 5.24183871,8.05625806 L5.24183871,8.05625806 Z M5.24183871,5.80516129 L2.99758065,5.80516129 C2.76770968,5.80516129 2.61977419,5.95767742 2.61977419,6.18303226 L2.61977419,6.18754839 C2.61977419,6.41748387 2.77229032,6.56541935 2.99758065,6.56541935 L5.24183871,6.56541935 C5.47177419,6.56541935 5.61970968,6.41290323 5.61970968,6.18754839 L5.61970968,6.18529032 L5.61970968,6.18303226 C5.61970968,5.95316129 5.46493548,5.80522581 5.24183871,5.80522581 L5.24183871,5.80516129 Z M5.24183871,3.56322581 L2.99758065,3.56322581 C2.76770968,3.56322581 2.61977419,3.71116129 2.61977419,3.94109677 C2.61977419,4.17096774 2.77229032,4.31890323 2.99758065,4.31890323 L5.24183871,4.31890323 C5.47177419,4.31890323 5.61970968,4.17096774 5.61970968,3.94109677 C5.61970968,3.70890323 5.46493548,3.56322581 5.24183871,3.56322581 L5.24183871,3.56322581 Z" id="Fill-3" fill="#F0F0F0"></path>
                </g>
            </g>
        </g>
    </g>
</svg>