<?xml version="1.0" encoding="UTF-8"?>
<svg width="20px" height="19px" viewBox="0 0 20 19" version="1.1" xmlns="http://www.w3.org/2000/svg" xmlns:xlink="http://www.w3.org/1999/xlink">
    <!-- Generator: Sketch 63 (92445) - https://sketch.com -->
    <title>首页-选中备份</title>
    <desc>Created with Sketch.</desc>
    <defs>
        <polygon id="path-1" points="9.57675485e-06 0 19.9550857 0 19.9550857 18.5144927 9.57675485e-06 18.5144927"></polygon>
    </defs>
    <g id="页面-1" stroke="none" stroke-width="1" fill="none" fill-rule="evenodd">
        <g id="画板" transform="translate(-72.000000, -17.000000)">
            <g id="导航栏备份" transform="translate(9.000000, 8.000000)">
                <g id="首页-选中备份" transform="translate(63.000000, 9.000000)">
                    <mask id="mask-2" fill="white">
                        <use xlink:href="#path-1"></use>
                    </mask>
                    <g id="Clip-2"></g>
                    <path d="M16.4611543,17.0302514 C16.4117829,17.06328 16.3604686,17.0931086 16.3073257,17.1195086 C16.2473257,17.14008 16.1862971,17.1567657 16.12424,17.1695657 C15.9952114,17.1782514 15.8644686,17.1740229 15.7356686,17.1740229 L13.62744,17.1740229 L13.62744,13.2798514 C13.62744,12.8708229 13.5260686,12.44568 13.2843543,12.1094514 C12.8905257,11.5625943 12.2993257,11.2267086 11.6171543,11.2197371 C10.5653829,11.2087657 9.51292571,11.2197371 8.46092571,11.2197371 C8.07806857,11.2197371 7.71292571,11.2867086 7.37155429,11.4702514 C6.77086857,11.7934514 6.41178286,12.4101371 6.34229714,13.0757371 C6.32824,13.20968 6.33361143,13.3471657 6.33361143,13.4822514 L6.33361143,17.1735657 L5.37086857,17.1735657 C4.89464,17.1735657 4.41806857,17.1766514 3.94229714,17.1735657 C3.90618286,17.1735657 3.87029714,17.1719657 3.83429714,17.1695657 C3.77155429,17.1565371 3.70961143,17.1396229 3.64904,17.1188229 C3.60046857,17.0948229 3.55338286,17.0681943 3.50801143,17.0387086 L3.49281143,17.0284229 C3.46778286,17.0061371 3.44252571,16.9838514 3.41886857,16.9614514 C3.39521143,16.9391657 3.37578286,16.91528 3.35464,16.8918514 C3.35281143,16.8894514 3.35109714,16.8871657 3.34949714,16.8846514 C3.31646857,16.8353943 3.28675429,16.78408 3.26024,16.7309371 C3.23875429,16.6684229 3.22138286,16.6044229 3.20846857,16.5396229 C3.18275429,16.23608 3.20572571,15.9213371 3.20572571,15.6190514 L3.20572571,8.56533714 C3.20572571,8.19539429 3.21361143,7.82465143 3.20572571,7.45505143 L3.20572571,7.43870857 C3.20549714,7.37585143 3.19589714,7.31322286 3.17715429,7.25322286 L4.07384,6.44248 L6.54149714,4.21265143 L8.62915429,2.32510857 C8.93681143,2.04716571 9.24149714,1.76705143 9.55178286,1.49116571 L9.55326857,1.48945143 L9.56024,1.48316571 C9.61235429,1.44888 9.66618286,1.41745143 9.72161143,1.38876571 C9.77658286,1.37048 9.83269714,1.35562286 9.88949714,1.34408 C9.94858286,1.34053714 10.0077829,1.34053714 10.0668686,1.34408 C10.1232114,1.35573714 10.1789829,1.37059429 10.2336114,1.38876571 C10.2881257,1.41665143 10.3401257,1.44762286 10.3925829,1.48042286 L10.4084686,1.49448 L10.4307543,1.51368 L10.5670971,1.63699429 L11.1368114,2.15208 L13.1318971,3.95573714 L15.5952114,6.18270857 L16.7782971,7.25230857 C16.7603543,7.31310857 16.7513257,7.37608 16.7513257,7.43939429 L16.7513257,15.4124229 C16.7513257,15.7557371 16.7539543,16.0991657 16.7513257,16.44248 C16.7513257,16.47688 16.7497257,16.51128 16.74744,16.5454514 C16.7345257,16.6083086 16.7176114,16.6702514 16.6965829,16.7309371 C16.6728114,16.7796229 16.6461829,16.8268229 16.6166971,16.8721943 C16.6133829,16.8773371 16.6097257,16.8822514 16.6061829,16.8873943 C16.5838971,16.9121943 16.56264,16.9373371 16.5392114,16.9609943 C16.5157829,16.9846514 16.4918971,17.0043086 16.4684686,17.0251086 L16.4611543,17.0302514 Z M12.0260686,12.6929943 C12.0148686,12.6855657 12.0043543,12.6774514 11.99464,12.6684229 C11.9965829,12.6668229 12.0099543,12.6780229 12.0260686,12.6929943 Z M7.80686857,12.8211086 C7.79944,12.8321943 7.79132571,12.8427086 7.78229714,12.8525371 C7.78069714,12.8505943 7.79189714,12.8371086 7.80686857,12.8211086 Z M11.9640114,17.1735657 L7.67361143,17.1735657 L7.67361143,13.7313943 C7.67361143,13.5375657 7.66218286,13.3373371 7.67669714,13.14248 C7.68892571,13.08328 7.70492571,13.0247657 7.72446857,12.9675086 C7.74744,12.9214514 7.77304,12.8767657 7.80104,12.8335657 C7.80641143,12.8253371 7.81201143,12.8173371 7.81784,12.8092229 C7.84012571,12.7846514 7.86732571,12.7583657 7.87006857,12.7559657 C7.89235429,12.7335657 7.91738286,12.7134514 7.94035429,12.69208 C7.98572571,12.6620229 8.03292571,12.6347086 8.08161143,12.6103657 C8.13726857,12.5913943 8.19395429,12.5757371 8.25155429,12.5637371 C8.37475429,12.5555086 8.49932571,12.5595086 8.62252571,12.5595086 L11.2624114,12.5595086 C11.4097257,12.5595086 11.5604686,12.5532229 11.7089257,12.5635086 C11.7668686,12.5755086 11.8241257,12.5911657 11.8803543,12.6103657 C11.9264114,12.6333371 11.9709829,12.6589371 12.0141829,12.6869371 C12.0225257,12.6923086 12.0305257,12.6979086 12.0385257,12.7036229 C12.0630971,12.7260229 12.0894971,12.7534514 12.0918971,12.7559657 C12.1141829,12.7782514 12.1342971,12.80328 12.1557829,12.8262514 C12.1857257,12.8716229 12.2131543,12.9188229 12.2374971,12.9675086 C12.2566971,13.0238514 12.2724686,13.0813371 12.2845829,13.1396229 C12.2961257,13.3009943 12.2883543,13.4659086 12.2883543,13.6269371 L12.2883543,17.1735657 L11.9640114,17.1735657 Z M18.8544114,7.32602286 L16.70264,5.38065143 L14.1724686,3.09322286 L12.1030971,1.22270857 L11.5137257,0.689565714 C11.3030971,0.499394286 11.0923543,0.307508571 10.8280114,0.192765714 C10.55064,0.0724228571 10.2686971,-0.00346285714 9.96241143,7.99999997e-05 C9.64995429,0.00385142857 9.36606857,0.0836228571 9.08412571,0.212194286 C8.89566857,0.298137143 8.73098286,0.429565714 8.57806857,0.56728 C8.44721143,0.685108571 8.31658286,0.80328 8.18606857,0.921565714 L6.36584,2.56728 L3.85486857,4.83756571 C3.08298286,5.53505143 2.31132571,6.23265143 1.53989714,6.93048 L0.254868571,8.09116571 L0.194411429,8.14590857 C-0.0663885714,8.38156571 -0.0631885714,8.85722286 0.194411429,9.09345143 C0.472925714,9.34922286 0.864011429,9.34499429 1.14195429,9.09345143 L1.86606857,8.43870857 L1.86606857,16.4211086 C1.86709714,16.9300229 2.04149714,17.3838514 2.35704,17.77848 C2.73235429,18.2494514 3.33921143,18.5087657 3.93544,18.51368 L15.3947543,18.51368 C15.6043543,18.51368 15.8139543,18.5155086 16.0235543,18.51368 C16.7099543,18.5075086 17.3094971,18.1761943 17.7141829,17.6313943 C17.9717829,17.2846514 18.0899543,16.8447657 18.0905257,16.4166514 L18.0905257,8.44122286 C18.32584,8.65550857 18.5611543,8.86956571 18.7993257,9.08042286 L18.81464,9.09425143 C19.0747543,9.32933714 19.50904,9.37025143 19.7624114,9.09425143 C19.9977257,8.83802286 20.0401257,8.39790857 19.7624114,8.14670857 L18.8544114,7.32602286 Z" id="Fill-1" fill="#39C7DB" mask="url(#mask-2)"></path>
                </g>
            </g>
        </g>
    </g>
</svg>