<?xml version="1.0" encoding="UTF-8"?>
<svg width="11px" height="12px" viewBox="0 0 11 12" version="1.1" xmlns="http://www.w3.org/2000/svg" xmlns:xlink="http://www.w3.org/1999/xlink">
    <!-- Generator: Sketch 63 (92445) - https://sketch.com -->
    <title>详情</title>
    <desc>Created with Sketch.</desc>
    <g id="页面-1" stroke="none" stroke-width="1" fill="none" fill-rule="evenodd">
        <g id="农业资产" transform="translate(-30.000000, -765.000000)" fill="#F0F0F0">
            <g id="编组-5" transform="translate(30.000000, 710.000000)">
                <g id="详情" transform="translate(0.000000, 55.000000)">
                    <path d="M0.721153846,10.8173077 L9.73557692,10.8173077 L9.73557692,0.721153846 L0.721153846,0.721153846 L0.721153846,10.8173077 Z M9.73557692,0 L0.721153846,0 C0.322903846,0 0,0.322903846 0,0.721153846 L0,10.8173077 C0,11.2155577 0.322903846,11.5384615 0.721153846,11.5384615 L9.73557692,11.5384615 C10.1338269,11.5384615 10.4567308,11.2155577 10.4567308,10.8173077 L10.4567308,0.721153846 C10.4567308,0.322903846 10.1338269,0 9.73557692,0 L9.73557692,0 Z" id="Fill-1"></path>
                    <path d="M2.52403846,8.31490385 L6.76805769,8.31490385 C6.96721154,8.31490385 7.12863462,8.15348077 7.12863462,7.95432692 C7.12863462,7.75517308 6.96721154,7.59375 6.76805769,7.59375 L2.52403846,7.59375 C2.32488462,7.59375 2.16346154,7.75517308 2.16346154,7.95432692 C2.16346154,8.15348077 2.32488462,8.31490385 2.52403846,8.31490385 M2.52403846,6.07932692 L7.12863462,6.07932692 C7.32778846,6.07932692 7.48921154,5.91790385 7.48921154,5.71875 C7.48921154,5.51959615 7.32778846,5.35817308 7.12863462,5.35817308 L2.52403846,5.35817308 C2.32488462,5.35817308 2.16346154,5.51959615 2.16346154,5.71875 C2.16346154,5.91790385 2.32488462,6.07932692 2.52403846,6.07932692 M2.52403846,3.43269231 L7.84257692,3.43269231 C8.04173077,3.43269231 8.20315385,3.27126923 8.20315385,3.07211538 C8.20315385,2.87296154 8.04173077,2.71153846 7.84257692,2.71153846 L2.52403846,2.71153846 C2.32488462,2.71153846 2.16346154,2.87296154 2.16346154,3.07211538 C2.16346154,3.27126923 2.32488462,3.43269231 2.52403846,3.43269231" id="Fill-3"></path>
                </g>
            </g>
        </g>
    </g>
</svg>