<?xml version="1.0" encoding="UTF-8"?>
<svg width="12px" height="12px" viewBox="0 0 12 12" version="1.1" xmlns="http://www.w3.org/2000/svg" xmlns:xlink="http://www.w3.org/1999/xlink">
    <!-- Generator: Sketch 63 (92445) - https://sketch.com -->
    <title>时间</title>
    <desc>Created with Sketch.</desc>
    <defs>
        <polygon id="path-1" points="0 0.0239497006 11.9760719 0.0239497006 11.9760719 12 0 12"></polygon>
    </defs>
    <g id="页面-1" stroke="none" stroke-width="1" fill="none" fill-rule="evenodd">
        <g id="农业资产" transform="translate(-30.000000, -717.000000)">
            <g id="编组-5" transform="translate(30.000000, 710.000000)">
                <g id="时间" transform="translate(0.000000, 7.000000)">
                    <g id="编组" transform="translate(0.000000, 0.047928)">
                        <mask id="mask-2" fill="white">
                            <use xlink:href="#path-1"></use>
                        </mask>
                        <g id="Clip-2"></g>
                        <path d="M5.988,0.0239497006 C2.68095808,0.0239497006 0,2.70490778 0,6.0119497 C0,9.31906347 2.68095808,12.0000216 5.988,12.0000216 C9.29511377,12.0000216 11.9760719,9.31906347 11.9760719,6.0119497 C11.9760719,2.70490778 9.29511377,0.0239497006 5.988,0.0239497006 M5.988,1.22157844 C8.63367665,1.22157844 10.7784431,3.36627305 10.7784431,6.0119497 C10.7784431,8.65762635 8.63367665,10.8023928 5.988,10.8023928 C3.34232335,10.8023928 1.19755689,8.65762635 1.19755689,6.0119497 C1.19755689,3.36627305 3.34232335,1.22157844 5.988,1.22157844" id="Fill-1" fill="#F0F0F0" mask="url(#mask-2)"></path>
                    </g>
                    <path d="M5.988,2.4670994 C5.65731737,2.4670994 5.38922156,2.73519521 5.38922156,3.06587784 L5.38922156,6.05984192 C5.38922156,6.39059641 5.65731737,6.65869222 5.988,6.65869222 C6.31875449,6.65869222 6.5868503,6.39059641 6.5868503,6.05984192 L6.5868503,3.06587784 C6.5868503,2.73519521 6.31875449,2.4670994 5.988,2.4670994" id="Fill-3" fill="#F0F0F0"></path>
                    <path d="M8.98203593,5.46109927 L5.988,5.46109927 C5.65731737,5.46088383 5.38900599,5.72876407 5.38879019,6.05944671 C5.38850299,6.3902012 5.65645509,6.65844072 5.98713772,6.65872814 L5.988,6.65872814 L8.98203593,6.65872814 C9.31279042,6.65872814 9.58081437,6.39063234 9.58081437,6.05987784 C9.58081437,5.72912335 9.31279042,5.46109927 8.98203593,5.46109927" id="Fill-5" fill="#F0F0F0"></path>
                </g>
            </g>
        </g>
    </g>
</svg>