<?xml version="1.0" encoding="UTF-8"?>
<svg width="250px" height="32px" viewBox="0 0 250 32" version="1.1" xmlns="http://www.w3.org/2000/svg" xmlns:xlink="http://www.w3.org/1999/xlink">
    <!-- Generator: Sketch 63 (92445) - https://sketch.com -->
    <title>logo备份 4</title>
    <desc>Created with Sketch.</desc>
    <defs>
        <linearGradient x1="50%" y1="0%" x2="50%" y2="100%" id="linearGradient-1">
            <stop stop-color="#FFFFFF" offset="0%"></stop>
            <stop stop-color="#99D8FF" offset="100%"></stop>
        </linearGradient>
    </defs>
    <g id="页面-1" stroke="none" stroke-width="1" fill="none" fill-rule="evenodd" opacity="0.100000001">
        <g id="农场详情" transform="translate(-63.000000, -1972.000000)" fill-rule="nonzero">
            <g id="logo备份-4" transform="translate(63.000000, 1972.000000)">
                <g id="logo备份-5">
                    <path d="M7.98738302,9.5712158 L7.98738302,5.06713763 L9.17760422,5.06713763 L9.17760422,9.24470829 L14.9906183,12.1832759 L14.9906183,6.43554918 L16.1808395,6.43554918 L16.1808395,12.1832759 L21.9941823,9.24470829 L21.9941823,5.05950585 L23.1844035,5.05950585 L23.1844035,21.8308428 C26.8484366,17.4562389 27.3164824,11.202313 24.3450956,6.32192874 C21.3737088,1.44154452 15.6340375,-0.962963881 10.1114656,0.359064078 C4.5888936,1.68109204 0.530806233,6.43104944 0.0479424867,12.1383339 C-0.43492126,17.8456183 2.76650322,23.2211234 7.98705423,25.4688797 L7.98738302,9.5712158 Z" id="路径_552" fill="#99D8FF"></path>
                    <g id="组_401" transform="translate(9.037344, 10.680498)" fill="#81A7FF">
                        <polygon id="路径_553" points="0 4.32793802 5.94737312 7.27275156 5.94737312 2.94447977 0 -0.00033376556"></polygon>
                        <polygon id="路径_554" points="7.13718481 2.94447977 7.13718481 7.27241779 13.0845579 4.32760425 13.0845579 0"></polygon>
                        <polygon id="路径_555" points="0 9.87412033 5.94737312 12.8189339 5.94737312 8.49099585 0 5.54618231"></polygon>
                        <polygon id="路径_556" points="7.13718481 12.8189339 13.0845579 9.87412033 13.0845579 5.54618231 7.13718481 8.49099585"></polygon>
                        <polygon id="路径_557" points="0 15.3885949 5.94737312 18.3334085 5.94737312 14.0054704 0 11.0606569"></polygon>
                        <polygon id="路径_558" points="7.13718481 17.1014798 7.13718481 21.0549328 7.73209065 21.0549328 7.73209065 18.0386935 13.084895 15.3885949 13.084895 11.0606569 7.13752186 14.0054704"></polygon>
                    </g>
                </g>
                <path d="M49.6488409,15.5724953 L49.6488409,13.706305 L43.4434435,13.706305 L43.4434435,11.4741951 L50.4629601,11.4741951 L50.4629601,9.60800482 L43.4434435,9.60800482 L43.4434435,7.5771507 L41.5257406,7.5771507 L41.5257406,9.60800482 L34.5062241,9.60800482 L34.5062241,11.4741951 L41.5257406,11.4741951 L41.5257406,13.706305 L35.3384348,13.706305 L35.3384348,15.5724953 L49.6488409,15.5724953 Z M38.2511723,24.4826391 L38.2511723,23.8605756 L46.7361034,23.8605756 L46.7361034,24.4826391 L48.6538063,24.4826391 L48.6538063,16.999582 L36.3334693,16.999582 L36.3334693,24.4826391 L38.2511723,24.4826391 Z M46.7361034,22.0309773 L38.2511723,22.0309773 L38.2511723,18.8474763 L46.7361034,18.8474763 L46.7361034,22.0309773 Z M56.5598082,24.4826391 L56.5598082,17.3472057 C57.0663712,17.7863093 57.5910258,18.2985968 58.1337719,18.9023642 L59.2011726,17.2557257 C58.405145,16.5238864 57.5548427,15.883527 56.6321743,15.2980556 C57.5548427,14.0356327 58.2423211,12.7549139 58.6946096,11.4741951 L58.6946096,9.86414859 L56.8854558,9.86414859 C56.6683574,9.11401328 56.3608013,8.29069404 55.9989705,7.39419087 L54.2079083,7.9064784 C54.533556,8.52854182 54.8230206,9.18719721 55.0943936,9.86414859 L52.6339445,9.86414859 L52.6339445,11.6937469 L56.7949981,11.6937469 C55.980879,13.5050492 54.4611898,15.3712395 52.2178392,17.2740217 L52.8148599,19.2865799 C53.4842468,18.7011084 54.1174506,18.1339329 54.6963798,17.5484615 L54.6963798,24.4826391 L56.5598082,24.4826391 Z M61.4445233,18.4998526 L61.4445233,9.9556285 L65.8045838,9.9556285 L65.8045838,18.4998526 L67.7222867,18.4998526 L67.7222867,8.12603019 L59.5630034,8.12603019 L59.5630034,18.4998526 L61.4445233,18.4998526 Z M58.7850673,24.6473029 C60.7389533,23.8056877 62.1500932,22.6347448 63.0365786,21.0978822 C63.2355855,20.7136665 63.4165008,20.2928589 63.5974162,19.8354594 L63.5974162,22.3237131 C63.5974162,23.5678399 64.1582539,24.1899033 65.2980207,24.1899033 L67.1071745,24.1899033 C67.7041952,24.1899033 68.1564836,24.0435355 68.4640398,23.7690957 C68.7535044,23.47636 68.9706028,22.5249689 69.0972436,20.9515143 L67.3423645,20.3843388 C67.3061814,21.3723219 67.2338152,21.9577934 67.1433575,22.1773452 C67.0528999,22.360305 66.9262591,22.4517849 66.7634353,22.4517849 L65.8588584,22.4517849 C65.5693938,22.4517849 65.442753,22.2688251 65.442753,21.9212014 L65.442753,18.4449646 L64.0135216,18.4449646 C64.2848946,17.2923177 64.4477185,15.9750069 64.5019931,14.4930323 L64.5019931,11.0533875 L62.6928393,11.0533875 L62.6928393,14.4930323 C62.6204732,16.6519583 62.2586424,18.4266687 61.6073471,19.7988674 C60.9379602,21.0612902 59.6534611,22.1224572 57.7538496,22.9640725 L58.7850673,24.6473029 Z M73.8372264,24.500935 C76.2614924,23.8422796 78.3239277,23.1104403 80.0245322,22.3054171 L79.7350676,20.5124107 C78.5772092,21.0795862 77.29271,21.5735777 75.8996616,22.0126813 L75.8996616,16.7434382 C76.8223301,15.5907913 77.6183577,14.2917765 78.3058361,12.8280978 C79.210413,17.6948293 81.5984959,21.5918737 85.4700849,24.4826391 L86.5917603,22.6713367 C84.9635219,21.5735777 83.6247481,20.274563 82.5754389,18.7925883 C83.7694804,17.9875651 84.8187896,17.0727659 85.7052749,16.0481909 L84.2579519,14.767472 C83.4981074,15.6822712 82.6297136,16.5055904 81.6165875,17.2557257 C80.7481937,15.6639752 80.1511729,13.8892649 79.8617083,11.9132987 L84.0046704,11.9132987 L84.0046704,14.4381444 L85.8680988,14.4381444 L85.8680988,10.1019964 L79.3370538,10.1019964 C79.5541522,9.35186106 79.7712507,8.56513379 79.952166,7.72351857 L78.0887377,7.48567079 C77.9078223,8.38217396 77.6726323,9.26038114 77.4012593,10.1019964 L71.467235,10.1019964 L71.467235,14.4381444 L73.3306633,14.4381444 L73.3306633,11.9132987 L76.6775978,11.9132987 C75.3207324,14.8772479 73.2221141,17.2008378 70.3636512,18.9023642 L71.3225027,20.6587786 C72.2994457,20.0733071 73.2040226,19.4146517 74.0543248,18.6645164 L74.0543248,21.7565376 C74.0543248,22.2505291 73.8372264,22.5981528 73.4392126,22.7811126 L73.8372264,24.500935 Z M104.846121,23.8605756 L104.846121,21.9943854 L99.6357587,21.9943854 L99.6357587,7.66863062 L97.7361473,7.66863062 L97.7361473,21.9943854 L95.7460782,21.9943854 L95.7460782,7.66863062 L93.8464668,7.66863062 L93.8464668,21.9943854 L88.6722871,21.9943854 L88.6722871,23.8605756 L104.846121,23.8605756 Z M91.3136515,19.8720513 L93.0323476,19.4512437 C92.3267776,16.3043346 91.5126584,13.5050492 90.6080816,11.0716835 L88.9979347,11.620563 C89.9386947,14.2734805 90.6985392,17.017878 91.3136515,19.8720513 Z M101.897201,19.8171634 C102.94651,17.4752775 103.814904,14.7308801 104.502382,11.602267 L102.837961,11.1265714 C102.078116,14.3832564 101.209722,17.0910619 100.196596,19.2133959 L101.897201,19.8171634 Z M119.30126,24.4094551 C121.146597,24.4094551 122.177814,23.6227279 122.394913,22.0492733 C122.575828,20.5855947 122.666286,16.6702543 122.666286,10.3032522 L115.827685,10.3032522 C116.026692,9.57141286 116.207607,8.80298157 116.388522,7.97966233 L114.615552,7.50396677 C114.145172,10.1751803 113.349144,12.2426264 112.227469,13.6697131 L113.602426,14.858952 C114.199446,14.1271126 114.724101,13.2123135 115.176389,12.1328505 L115.936234,12.1328505 C115.266847,15.3712395 114.054714,17.7314213 112.317926,19.2316919 L113.530059,20.6587786 C115.502037,18.8657723 116.858902,16.0115989 117.618747,12.1328505 L118.523324,12.1328505 C118.179585,14.6942881 117.691113,16.7434382 117.057909,18.2985968 C116.316156,19.9818272 115.212572,21.4820978 113.729066,22.8360006 L114.905016,24.3545672 C116.533255,22.8177046 117.781571,21.0612902 118.613781,19.121916 C119.30126,17.4020936 119.825914,15.0602078 120.205837,12.1328505 L120.857132,12.1328505 C120.820949,17.3106137 120.766674,20.3294509 120.658125,21.1893621 C120.513393,22.1956412 119.952555,22.7079287 118.993704,22.7079287 C118.559507,22.7079287 118.071035,22.6713367 117.492106,22.6164488 L117.926303,24.3179752 C118.577598,24.3728632 119.047978,24.4094551 119.30126,24.4094551 Z M111.377166,24.4826391 L111.377166,18.4449646 C111.757089,18.2620048 112.137011,18.097341 112.535025,17.9143811 L112.535025,16.1213748 C112.137011,16.3043346 111.757089,16.4872945 111.377166,16.6702543 L111.377166,13.0110577 L112.607391,13.0110577 L112.607391,11.1814594 L111.377166,11.1814594 L111.377166,7.5771507 L109.53183,7.5771507 L109.53183,11.1814594 L108.753894,11.1814594 C108.808168,10.486212 108.844351,9.79096465 108.880534,9.0957173 L107.198021,8.96764542 C107.125655,11.0899795 106.854282,13.1208336 106.365811,15.0419118 L108.030232,15.5176074 C108.229239,14.7125841 108.392063,13.8709689 108.536795,13.0110577 L109.53183,13.0110577 L109.53183,17.3837976 C108.554887,17.7131253 107.577944,17.9875651 106.582909,18.1888209 L107.035198,20.0367152 C107.8855,19.7805714 108.71771,19.4878357 109.53183,19.1951 L109.53183,24.4826391 L111.377166,24.4826391 Z M132.652814,24.6107109 C134.534334,23.3665841 135.836925,21.4820978 136.578678,18.9755482 C137.157607,20.8051465 138.333557,22.6530408 140.106528,24.519231 L141.409119,23.0921443 C139.419049,21.2259541 138.170733,19.3780598 137.682262,17.5484615 L141.119654,17.5484615 L141.119654,15.7188632 L137.19379,15.7188632 C137.266157,14.9870238 137.30234,14.2002966 137.30234,13.3769773 L137.30234,13.1391296 L140.794006,13.1391296 L140.794006,11.3461232 L138.496381,11.3461232 C139.002944,10.486212 139.509507,9.44334097 140.01607,8.23580609 L138.261191,7.55885472 C137.808903,8.91275747 137.266157,10.1751803 136.632953,11.3461232 L134.534334,11.3461232 L135.818834,10.4313241 C135.457003,9.62630081 134.932348,8.69320567 134.262961,7.63203865 L132.815638,8.56513379 C133.466934,9.57141286 133.991588,10.504508 134.389602,11.3461232 L132.146251,11.3461232 L132.146251,13.1391296 L135.475094,13.1391296 L135.475094,13.8160809 C135.475094,14.4747363 135.438911,15.0967997 135.366545,15.7188632 L131.856787,15.7188632 L131.856787,17.5484615 L135.095172,17.5484615 C134.534334,20.0733071 133.340293,21.9212014 131.513048,23.0555524 L132.652814,24.6107109 Z M131.042668,24.500935 L131.042668,21.0795862 C131.368315,20.9881063 131.712055,20.8966264 132.037702,20.7868505 L132.037702,18.9389562 C131.712055,19.0487321 131.386407,19.158508 131.042668,19.2682839 L131.042668,9.88244457 L132.001519,9.88244457 L132.001519,8.12603019 L124.656355,8.12603019 L124.656355,9.88244457 L125.560932,9.88244457 L125.560932,20.5672987 L124.565897,20.7136665 L125.018186,22.5249689 C126.465509,22.2322331 127.858557,21.9212014 129.215422,21.5918737 L129.215422,24.500935 L131.042668,24.500935 Z M129.215422,12.0413706 L127.351994,12.0413706 L127.351994,9.88244457 L129.215422,9.88244457 L129.215422,12.0413706 Z M129.215422,15.846935 L127.351994,15.846935 L127.351994,13.761193 L129.215422,13.761193 L129.215422,15.846935 Z M127.351994,20.237971 L127.351994,17.5667575 L129.215422,17.5667575 L129.215422,19.7988674 C128.60031,19.9452353 127.985198,20.0916031 127.351994,20.237971 Z M145.461623,24.500935 L145.461623,13.5233452 C146.221468,14.4564403 146.981312,15.4261274 147.704974,16.4141105 C147.162227,18.097341 146.474749,19.5976116 145.642538,20.8783304 L146.83658,22.378601 C147.650699,21.2076581 148.356269,19.8171634 148.95329,18.2071169 C149.387487,18.8657723 149.821683,19.5427236 150.25588,20.237971 L151.504196,18.9755482 C150.852901,17.9509731 150.219697,17.017878 149.604585,16.1762627 C150.02069,14.6759921 150.36443,13.0293537 150.635803,11.1997553 L148.899015,10.8887236 C148.736191,12.0962585 148.519093,13.2672014 148.265811,14.3649604 C147.650699,13.5599372 147.07177,12.8646898 146.529024,12.2792184 L145.461623,13.3220894 L145.461623,9.97392448 L156.60601,9.97392448 L156.60601,19.7073875 C155.954715,18.6096285 155.321511,17.5850534 154.706399,16.6519583 C155.212962,15.0419118 155.629067,13.2306095 155.936623,11.2546433 L154.163652,10.9436116 C153.964646,12.2792184 153.711364,13.5416412 153.403808,14.7308801 C152.788696,13.8526729 152.209766,13.1208336 151.685112,12.4987701 L150.527253,13.6331211 C151.30519,14.6576961 152.065034,15.7005672 152.788696,16.7800302 C152.173583,18.4998526 151.413739,20.0001232 150.509162,21.317434 L151.703203,22.8177046 C152.571597,21.6467617 153.331442,20.274563 153.982737,18.6645164 C154.4893,19.4695397 154.95968,20.2928589 155.43006,21.1344742 L156.60601,19.9452353 L156.60601,22.0126813 C156.60601,22.415193 156.388912,22.6164488 155.972806,22.6164488 L154.308385,22.5249689 L154.778765,24.3728632 L156.587918,24.3728632 C157.836235,24.3728632 158.469438,23.7325038 158.469438,22.4517849 L158.469438,8.14432618 L143.598195,8.14432618 L143.598195,24.500935 L145.461623,24.500935 Z M161.90683,24.6107109 C165.525138,22.6896327 167.949404,19.6890915 169.179629,15.6090873 C170.554585,19.3780598 172.96076,22.3237131 176.361969,24.4460471 L177.55601,22.8725925 C174.028161,20.7868505 171.621986,17.8411972 170.319395,14.0173367 L177.139905,14.0173367 L177.139905,12.1511465 L169.885198,12.1511465 C170.011839,11.0899795 170.084205,9.9556285 170.084205,8.7663896 L170.084205,7.55885472 L168.166502,7.55885472 L168.166502,9.2054932 C168.148411,10.2300682 168.076045,11.1997553 167.967495,12.1511465 L161.110803,12.1511465 L161.110803,14.0173367 L167.641848,14.0173367 C166.664905,18.2071169 164.349188,21.2076581 160.694697,23.0006644 L161.90683,24.6107109 Z M194.652513,24.519231 L195.701822,22.9640725 C194.507781,22.1407532 193.476563,20.9881063 192.608169,19.5244276 C193.567021,17.4386856 194.091676,14.9321359 194.200225,11.9864826 L195.195259,11.9864826 L195.195259,10.1385883 L190.672375,10.1385883 C190.799016,9.42504499 190.907565,8.67490969 191.016114,7.86988643 L189.170777,7.54055874 C188.827038,10.9070196 188.157651,13.5965291 187.162617,15.6090873 L188.338567,17.0910619 C188.628031,16.5787744 188.917496,16.0115989 189.188869,15.4078315 C189.623066,16.9081021 190.129629,18.2620048 190.708558,19.4695397 C189.930622,20.8783304 188.881313,22.0126813 187.578722,22.8908885 L188.555665,24.500935 C189.78589,23.6044319 190.835199,22.5066729 191.685501,21.2259541 C192.535803,22.5798568 193.530838,23.6776158 194.652513,24.519231 Z M179.817452,16.3043346 C181.120043,15.3529435 182.060803,14.2734805 182.675915,13.0293537 L182.675915,15.901823 L184.412703,15.901823 L184.412703,13.9807448 C184.919266,14.3283685 185.55247,14.804064 186.312314,15.4078315 L187.289257,13.9075608 C186.312314,13.4135693 185.353463,12.9744657 184.412703,12.5902501 L184.412703,12.5536581 L187.488264,12.5536581 L187.488264,10.8887236 L184.412703,10.8887236 L184.412703,7.5771507 L182.675915,7.5771507 L182.675915,10.8887236 L179.310889,10.8887236 L179.310889,12.5536581 L181.463782,12.5536581 C180.921036,13.3586814 180.052642,14.0905207 178.876693,14.767472 L179.817452,16.3043346 Z M186.077124,10.6874678 C186.637962,9.9556285 187.090251,9.2054932 187.452081,8.43706191 L186.131399,7.7967025 C185.805751,8.52854182 185.335371,9.26038114 184.756442,10.0105165 L186.077124,10.6874678 Z M180.722029,10.6142839 L182.060803,10.0105165 C181.771339,9.22378918 181.427599,8.49194986 181.047677,7.81499848 L179.582263,8.29069404 C179.980276,8.96764542 180.360199,9.7360767 180.722029,10.6142839 Z M191.576952,17.5118695 C190.979931,16.1396708 190.49146,14.5479203 190.093446,12.7366179 C190.165812,12.4804742 190.220087,12.2426264 190.292453,11.9864826 L192.49962,11.9864826 C192.427254,14.0539287 192.119698,15.901823 191.576952,17.5118695 Z M179.708903,24.4460471 C181.499965,23.9703515 182.983472,23.3665841 184.177513,22.5981528 C185.154456,23.0555524 185.986667,23.494656 186.674145,23.9154636 L187.687271,22.415193 C187.017884,22.0492733 186.330406,21.7199456 185.624836,21.4089139 C186.420864,20.6038906 186.96361,19.6524995 187.271166,18.5913325 L187.271166,17.0544699 L183.634767,17.0544699 C183.725225,16.7983262 183.815682,16.5238864 183.924231,16.2494467 L182.151261,16.0298949 C182.042712,16.3592226 181.916071,16.6885503 181.78943,17.0544699 L179.274706,17.0544699 L179.274706,18.6828124 L181.065769,18.6828124 C180.740121,19.3597638 180.360199,20.0733071 179.926002,20.8051465 C180.722029,21.1161782 181.499965,21.4272099 182.223627,21.7382416 C181.264775,22.1773452 180.1431,22.5615608 178.840509,22.8542966 L179.708903,24.4460471 Z M183.924231,20.6953706 C183.345302,20.4575228 182.766373,20.237971 182.187444,20.0550112 C182.440725,19.6159076 182.694007,19.158508 182.929197,18.6828124 L185.606744,18.6828124 C185.226822,19.4329477 184.665985,20.1098991 183.924231,20.6953706 Z M199.247764,24.3179752 C200.441805,24.3179752 201.038826,23.6776158 201.038826,22.433489 L201.038826,17.4752775 C201.509206,17.2374298 201.997677,16.999582 202.50424,16.7434382 L202.50424,14.8772479 C202.03386,15.1333917 201.545389,15.3712395 201.038826,15.6090873 L201.038826,12.700026 L202.576607,12.700026 L202.576607,10.8521317 L201.038826,10.8521317 L201.038826,7.61374267 L199.193489,7.61374267 L199.193489,10.8521317 L197.239603,10.8521317 L197.239603,12.700026 L199.193489,12.700026 L199.193489,16.3592226 C198.433644,16.6153663 197.655708,16.8349181 196.877772,17.017878 L197.366244,18.9023642 C197.981356,18.7011084 198.578377,18.4815566 199.193489,18.2620048 L199.193489,21.9577934 C199.193489,22.415193 198.994482,22.6530408 198.61456,22.6530408 C198.198454,22.6530408 197.764258,22.5981528 197.311969,22.5249689 L197.709983,24.3179752 L199.247764,24.3179752 Z M202.920346,24.519231 C204.060113,22.1773452 204.747591,19.4878357 204.964689,16.4324065 L208.040251,16.4324065 L208.040251,18.1888209 L205.199879,18.1888209 L205.199879,24.4826391 L206.936667,24.4826391 L206.936667,23.7325038 L211.007263,23.7325038 L211.007263,24.4826391 L212.744051,24.4826391 L212.744051,18.1888209 L209.885588,18.1888209 L209.885588,16.4324065 L213.540078,16.4324065 L213.540078,14.6942881 L209.885588,14.6942881 L209.885588,12.9744657 L213.142064,12.9744657 L213.142064,8.12603019 L203.227902,8.12603019 L203.227902,14.2002966 C203.20981,17.8594932 202.61279,20.8600344 201.43684,23.1836243 L202.920346,24.519231 Z M211.296728,11.2912353 L205.055147,11.2912353 L205.055147,9.86414859 L211.296728,9.86414859 L211.296728,11.2912353 Z M208.040251,14.6942881 L205.037056,14.6942881 C205.037056,14.5296243 205.055147,14.3649604 205.055147,14.2002966 L205.055147,12.9744657 L208.040251,12.9744657 L208.040251,14.6942881 Z M211.007263,22.0492733 L206.936667,22.0492733 L206.936667,19.8720513 L211.007263,19.8720513 L211.007263,22.0492733 Z M224.286451,24.4643431 L224.286451,18.2071169 L231.486883,18.2071169 L231.486883,16.3592226 L224.286451,16.3592226 L224.286451,10.0654044 L230.817496,10.0654044 L230.817496,8.19921413 L216.03671,8.19921413 L216.03671,10.0654044 L222.368748,10.0654044 L222.368748,16.3592226 L215.313049,16.3592226 L215.313049,18.2071169 L222.368748,18.2071169 L222.368748,24.4643431 L224.286451,24.4643431 Z M227.995217,15.6456792 C228.809336,14.3283685 229.478723,12.9561697 229.985286,11.547379 L228.26659,10.7240598 C227.778118,12.0596666 227.126823,13.4135693 226.294612,14.767472 L227.995217,15.6456792 Z M218.804716,15.7554551 L220.577686,14.8772479 C219.962574,13.3769773 219.347462,12.0230746 218.696166,10.7972437 L216.941287,11.6571549 C217.592583,12.8646898 218.225786,14.2368885 218.804716,15.7554551 Z M247.913999,16.4324065 L249.759336,15.5176074 C248.456745,13.3037934 247.09988,11.2912353 245.652557,9.46163696 L243.933861,10.2849562 C244.494699,10.9984995 245.055536,11.7669308 245.598282,12.5719541 C242.812186,12.8280978 239.953723,13.0293537 237.022894,13.1757215 C238.5064,11.7852268 239.935631,10.1019964 241.32868,8.16262216 L239.374794,7.4673748 C236.914345,11.1082754 235.032825,13.0293537 233.766417,13.2306095 L234.110156,15.0419118 C238.723498,14.8772479 242.920735,14.6211042 246.683775,14.2734805 C247.09988,14.9687279 247.515985,15.6822712 247.913999,16.4324065 Z M237.167626,24.519231 L237.167626,23.8239837 L245.815381,23.8239837 L245.815381,24.519231 L247.733084,24.519231 L247.733084,16.6702543 L235.249923,16.6702543 L235.249923,24.519231 L237.167626,24.519231 Z M245.815381,21.9943854 L237.167626,21.9943854 L237.167626,18.4998526 L245.815381,18.4998526 L245.815381,21.9943854 Z" id="吉视农业物联网大数据平台" fill="url(#linearGradient-1)"></path>
            </g>
        </g>
    </g>
</svg>