<?xml version="1.0" encoding="UTF-8"?>
<svg width="20px" height="19px" viewBox="0 0 20 19" version="1.1" xmlns="http://www.w3.org/2000/svg" xmlns:xlink="http://www.w3.org/1999/xlink">
    <!-- Generator: Sketch 63 (92445) - https://sketch.com -->
    <title>农业资产-未选备份</title>
    <desc>Created with Sketch.</desc>
    <defs>
        <polygon id="path-1" points="0 5.71428571e-05 20 5.71428571e-05 20 18.9777143 0 18.9777143"></polygon>
    </defs>
    <g id="页面-1" stroke="none" stroke-width="1" fill="none" fill-rule="evenodd">
        <g id="画板" transform="translate(-187.000000, -17.000000)">
            <g id="导航栏备份" transform="translate(9.000000, 8.000000)">
                <g id="农业资产-未选备份" transform="translate(178.000000, 9.000000)">
                    <mask id="mask-2" fill="white">
                        <use xlink:href="#path-1"></use>
                    </mask>
                    <g id="Clip-2"></g>
                    <path d="M10.8928571,10.0469143 L12.6562857,10.0469143 L12.6562857,11.0513714 L10.5022286,11.0513714 L10.5022286,12.2120571 L12.6562857,12.2120571 L12.6562857,13.2165143 L10.5022286,13.2165143 L10.5022286,15.9063429 L9.49777143,15.9063429 L9.49777143,13.2165143 L7.34371429,13.2165143 L7.34371429,12.2120571 L9.49777143,12.2120571 L9.49777143,11.0513714 L7.34371429,11.0513714 L7.34371429,10.0469143 L9.10714286,10.0469143 L7.35262857,7.95537143 L8.1228,7.31034286 L10.0000571,9.5492 L11.8794857,7.31034286 L12.6495429,7.95537143 L10.8928571,10.0469143 Z M18.3638286,16.6049714 C17.8816571,16.8572 17.2031429,17.0960571 16.4017714,17.2969714 C14.6473714,17.7321714 12.3750286,17.9732 10.0022286,17.9732 C7.62942857,17.9732 5.35708571,17.7321714 3.60268571,17.2969714 C2.80131429,17.0982286 2.1228,16.8593714 1.64062857,16.6049714 C1.22325714,16.3862286 1.05354286,16.2076 1.00897143,16.1384571 L1.00897143,3.85045714 C2.63171429,4.74337143 6.04908571,5.3572 10.0045143,5.3572 C13.9598286,5.3572 17.3772,4.74337143 19.0000571,3.85045714 L19.0000571,16.1384571 C18.9509143,16.2098857 18.7790286,16.3862286 18.3638286,16.6049714 L18.3638286,16.6049714 Z M1.6652,2.29468571 C2.15628571,2.05582857 2.83925714,1.82817143 3.6428,1.64062857 C5.39285714,1.23 7.64954286,1.00451429 10.0000571,1.00451429 C12.3504571,1.00451429 14.6071429,1.23 16.3572,1.64062857 C17.1607429,1.82817143 17.8437143,2.05582857 18.3348,2.29468571 C18.6741143,2.45982857 18.8481714,2.59377143 18.9352571,2.67857143 C18.8481714,2.7612 18.6741143,2.89731429 18.3348,3.06257143 C17.8437143,3.30142857 17.1607429,3.52908571 16.3572,3.71651429 C14.6071429,4.12725714 12.3504571,4.35274286 10.0000571,4.35274286 C7.64954286,4.35274286 5.39285714,4.12725714 3.6428,3.71651429 C2.83925714,3.52908571 2.15628571,3.30142857 1.6652,3.06257143 C1.32588571,2.89731429 1.15182857,2.76348571 1.06474286,2.67857143 C1.15182857,2.59605714 1.32817143,2.45982857 1.6652,2.29468571 L1.6652,2.29468571 Z M20.0000571,2.67857143 C20.0000571,1.19868571 15.5223429,5.71428571e-05 10.0000571,5.71428571e-05 C4.47765714,5.71428571e-05 -5.71428571e-05,1.19868571 -5.71428571e-05,2.67857143 L-5.71428571e-05,16.2076 C0.0513714286,17.7389143 4.50897143,18.9777714 10.0000571,18.9777714 C15.4910286,18.9777714 19.9464571,17.7410857 20.0000571,16.2076 L20.0000571,2.68977143 L20.0000571,2.67857143 Z" id="Fill-1" fill="#FFFFFF" mask="url(#mask-2)"></path>
                </g>
            </g>
        </g>
    </g>
</svg>