<?xml version="1.0" encoding="UTF-8"?>
<svg width="40px" height="39px" viewBox="0 0 40 39" version="1.1" xmlns="http://www.w3.org/2000/svg" xmlns:xlink="http://www.w3.org/1999/xlink">
    <!-- Generator: Sketch 63 (92445) - https://sketch.com -->
    <title>编组</title>
    <desc>Created with Sketch.</desc>
    <defs>
        <polygon id="path-1" points="2e-05 2e-05 39.90382 2e-05 39.90382 38.7808 2e-05 38.7808"></polygon>
    </defs>
    <g id="页面-1" stroke="none" stroke-width="1" fill="none" fill-rule="evenodd" opacity="0.3">
        <g id="农业资产" transform="translate(-310.000000, -710.000000)">
            <g id="编组-5" transform="translate(30.000000, 710.000000)">
                <g id="编组" transform="translate(280.000000, 0.000000)">
                    <mask id="mask-2" fill="white">
                        <use xlink:href="#path-1"></use>
                    </mask>
                    <g id="Clip-2"></g>
                    <path d="M39.44582,11.21042 C39.80302,11.83022 39.59102,12.62642 38.97102,12.98722 L34.85842,15.36822 L33.56342,13.11662 L37.67582,10.73182 C38.29202,10.37482 39.08462,10.58662 39.44182,11.20242 C39.44182,11.20642 39.44582,11.20642 39.44582,11.21042 Z M1.00362,11.21042 C1.35682,10.59062 2.14962,10.37482 2.76962,10.73182 C2.76962,10.73182 2.77342,10.73182 2.77342,10.73582 L6.88602,13.12062 L5.59122,15.37222 L1.47842,12.98322 C0.85842,12.62642 0.64642,11.83002 1.00362,11.21042 Z M9.12702,3.05562 C9.74302,2.69862 10.53582,2.91042 10.89282,3.52642 C10.89282,3.52642 10.89282,3.53022 10.89682,3.53022 L13.27102,7.65662 L11.02622,8.95502 L8.65202,4.82862 C8.29502,4.20882 8.50702,3.41642 9.12682,3.05562 L9.12702,3.05562 Z M20.22082,2e-05 C20.99782,2e-05 21.62562,0.58462 21.62562,1.31022 L21.62562,5.98562 L18.81602,5.98562 L18.81602,1.30622 C18.81602,0.58462 19.44382,2e-05 20.22082,2e-05 L20.22082,2e-05 Z M31.32262,3.05562 C31.94262,3.41642 32.15462,4.21282 31.79742,4.83242 L29.42322,8.95902 L27.17862,7.66062 L29.55282,3.53422 C29.90602,2.91442 30.69862,2.70262 31.31482,3.05562 L31.32262,3.05562 Z M21.19402,14.99942 L14.58942,25.87242 L19.87142,25.87242 L18.54902,34.02722 L25.15362,23.15422 L19.87142,23.15422 L21.19402,14.99942 Z M6.83502,35.34322 L6.83502,22.98942 C6.83502,15.59962 12.82742,9.60622 20.22482,9.60622 C27.62202,9.60622 33.61442,15.59962 33.61442,22.98942 L33.61442,35.34322 L38.18502,35.34322 C39.13422,35.34322 39.90382,36.11282 39.90382,37.06202 C39.90382,38.01122 39.13422,38.78082 38.18502,38.78082 L1.71882,38.78082 C0.76942,38.78082 2e-05,38.01122 2e-05,37.06202 C2e-05,36.11282 0.76942,35.34322 1.71882,35.34322 L6.83522,35.34322 L6.83502,35.34322 Z" id="Fill-1" fill="#FFFFFF" mask="url(#mask-2)"></path>
                </g>
            </g>
        </g>
    </g>
</svg>